<svg width="18" height="18" viewBox="0 0 18 18" fill="none" xmlns="http://www.w3.org/2000/svg">
<path fill-rule="evenodd" clip-rule="evenodd" d="M5.82119 0.32705C4.9973 -0.114853 4.00139 -0.108457 3.17269 0.34331C2.81232 0.53977 2.49079 0.8617 2.07493 1.27807L1.92338 1.42967C1.28876 2.06405 0.86893 2.48372 0.56819 3.01019C-0.0890315 4.16071 -0.185776 5.75085 0.32853 6.95865C0.56379 7.51113 0.89467 7.92431 1.39021 8.54308L1.45826 8.62808C2.47196 9.8944 3.74806 11.4884 5.18449 12.9249C6.5292 14.2696 7.91751 15.3792 9.1268 16.3457L9.4569 16.6098C10.0757 17.1053 10.4889 17.4362 11.0413 17.6715C12.2492 18.1858 13.8393 18.089 14.9898 17.4318C15.5163 17.1311 15.9359 16.7113 16.5703 16.0767L16.7219 15.9251C17.1383 15.5092 17.4602 15.1877 17.6567 14.8273C18.1085 13.9986 18.1149 13.0027 17.6729 12.1788C17.4808 11.8206 17.1626 11.5028 16.7516 11.0923L15.759 10.0998C15.7171 10.0578 15.6832 10.024 15.6501 9.9931C14.8541 9.2514 13.6733 9.0936 12.6963 9.5971C12.6556 9.6181 12.6128 9.6421 12.5602 9.6715L12.5507 9.6769C12.4648 9.7249 12.4364 9.7408 12.4112 9.7538C11.7469 10.0994 10.9509 10.0497 10.3448 9.6257C10.3219 9.6097 10.296 9.5905 10.2181 9.5322L10.0884 9.4353C9.9651 9.3432 9.9118 9.3033 9.86 9.2629C9.4411 8.93602 9.064 8.55896 8.73711 8.13999C8.69673 8.08824 8.65684 8.03492 8.56467 7.91157L8.46778 7.78191C8.40953 7.70396 8.39035 7.67815 8.37431 7.65522C7.95035 7.04913 7.90061 6.25306 8.24617 5.5888C8.25925 5.56366 8.27509 5.5352 8.32315 5.44935L8.32893 5.43903C8.35829 5.38659 8.38195 5.34435 8.40291 5.30366C8.90646 4.32672 8.74866 3.14587 8.00691 2.3499C7.97602 2.31676 7.94156 2.28231 7.89957 2.24032L6.90777 1.24846C6.49724 0.8374 6.17945 0.51921 5.82119 0.32705ZM3.88819 1.67529C4.26522 1.46975 4.71767 1.46716 5.09144 1.66763C5.15819 1.70344 5.23057 1.75654 5.35312 1.86805C5.4758 1.97969 5.64554 2.14682 5.90716 2.40844L6.8116 3.31288C6.86583 3.36711 6.87954 3.38099 6.89008 3.39229C7.19773 3.72243 7.26384 4.213 7.05419 4.61975C7.04701 4.63368 7.03744 4.651 6.99955 4.71868L6.99373 4.72908C6.95374 4.80049 6.92553 4.85088 6.90013 4.89971C6.29278 6.06719 6.37951 7.4679 7.12623 8.53539C7.15742 8.57997 7.19157 8.62568 7.23991 8.69035L7.3495 8.83701C7.43478 8.95114 7.48433 9.0174 7.53537 9.0829C7.9376 9.5984 8.4016 10.0624 8.91715 10.4646C8.98252 10.5156 9.0492 10.5655 9.1632 10.6507L9.3088 10.7594L9.3096 10.76C9.3743 10.8084 9.42 10.8426 9.4646 10.8738C10.5321 11.6205 11.9328 11.7072 13.1003 11.0999C13.1491 11.0745 13.2003 11.0458 13.2717 11.0059L13.2813 11.0005C13.349 10.9626 13.3663 10.953 13.3802 10.9458C13.787 10.7362 14.2776 10.8023 14.6077 11.1099C14.619 11.1205 14.6329 11.1342 14.6871 11.1884L15.5916 12.0929C15.8532 12.3545 16.0203 12.5242 16.1319 12.6469C16.2435 12.7694 16.2966 12.8418 16.3324 12.9086C16.5328 13.2823 16.5302 13.7348 16.3247 14.1118C16.2879 14.1793 16.2338 14.2525 16.1207 14.3765C16.0075 14.5006 15.8382 14.6725 15.5733 14.9374C14.8438 15.6669 14.5732 15.9287 14.2476 16.1148C13.5116 16.5352 12.4213 16.6012 11.6498 16.2727C11.3063 16.1264 11.052 15.93 10.3521 15.3697C9.1101 14.3754 7.65967 13.1302 6.26475 11.7353C4.86983 10.3403 3.62457 8.88992 2.63034 7.64796C2.07 6.94801 1.87359 6.69371 1.72731 6.35017C1.39878 5.57866 1.46483 4.4884 1.88523 3.75245C2.07125 3.4268 2.33312 3.15624 3.06264 2.42672C3.32752 2.16184 3.49939 1.99253 3.62352 1.87932C3.74753 1.76622 3.82075 1.71206 3.88819 1.67529Z" fill="#201F29"/>
</svg>
