<svg width="18" height="18" viewBox="0 0 18 18" fill="none" xmlns="http://www.w3.org/2000/svg">
<path fill-rule="evenodd" clip-rule="evenodd" d="M11.3668 6.63323C11.0714 6.33783 10.5924 6.33783 10.297 6.63323L9 7.93026L7.70298 6.63323C7.40757 6.33783 6.92863 6.33783 6.63323 6.63323C6.33783 6.92863 6.33783 7.40758 6.63323 7.70298L7.93026 9L6.63323 10.297C6.33783 10.5924 6.33783 11.0714 6.63323 11.3668C6.92863 11.6622 7.40757 11.6622 7.70298 11.3668L9 10.0698L10.297 11.3668C10.5924 11.6622 11.0714 11.6622 11.3668 11.3668C11.6622 11.0714 11.6622 10.5924 11.3668 10.297L10.0698 9L11.3668 7.70298C11.6622 7.40757 11.6622 6.92863 11.3668 6.63323ZM9 0C4.02944 0 0 4.02944 0 9C0 13.9706 4.02944 18 9 18C13.9706 18 18 13.9706 18 9C18 4.02944 13.9706 0 9 0ZM1.51285 9C1.51285 4.86496 4.86496 1.51285 9 1.51285C13.135 1.51285 16.4872 4.86496 16.4872 9C16.4872 13.135 13.135 16.4872 9 16.4872C4.86496 16.4872 1.51285 13.135 1.51285 9Z" fill="#201F29"/>
</svg>
