<svg width="41" height="41" viewBox="0 0 41 41" fill="none" xmlns="http://www.w3.org/2000/svg">
<rect x="3.02539" y="3.24805" width="34.875" height="34.875" rx="17.4375" stroke="#E8E8F6"/>
<path d="M25.9766 16.1228C25.9766 16.7299 25.4844 17.2221 24.8773 17.2221C24.2702 17.2221 23.778 16.7299 23.778 16.1228C23.778 15.5157 24.2702 15.0235 24.8773 15.0235C25.4844 15.0235 25.9766 15.5157 25.9766 16.1228Z" fill="#666680"/>
<path fill-rule="evenodd" clip-rule="evenodd" d="M20.8466 23.8177C22.8703 23.8177 24.5109 22.1772 24.5109 20.1535C24.5109 18.1297 22.8703 16.4892 20.8466 16.4892C18.8229 16.4892 17.1824 18.1297 17.1824 20.1535C17.1824 22.1772 18.8229 23.8177 20.8466 23.8177ZM20.8466 22.352C22.0609 22.352 23.0452 21.3677 23.0452 20.1535C23.0452 18.9392 22.0609 17.9549 20.8466 17.9549C19.6324 17.9549 18.6481 18.9392 18.6481 20.1535C18.6481 21.3677 19.6324 22.352 20.8466 22.352Z" fill="#666680"/>
<path fill-rule="evenodd" clip-rule="evenodd" d="M13.5181 19.8603C13.5181 17.3977 13.5181 16.1664 13.9974 15.2258C14.4189 14.3984 15.0916 13.7258 15.919 13.3042C16.8596 12.825 18.0909 12.825 20.5535 12.825H21.1398C23.6024 12.825 24.8337 12.825 25.7743 13.3042C26.6016 13.7258 27.2743 14.3984 27.6959 15.2258C28.1751 16.1664 28.1751 17.3977 28.1751 19.8603V20.4466C28.1751 22.9092 28.1751 24.1405 27.6959 25.0811C27.2743 25.9085 26.6016 26.5811 25.7743 27.0027C24.8337 27.482 23.6024 27.482 21.1398 27.482H20.5535C18.0909 27.482 16.8596 27.482 15.919 27.0027C15.0916 26.5811 14.4189 25.9085 13.9974 25.0811C13.5181 24.1405 13.5181 22.9092 13.5181 20.4466V19.8603ZM20.5535 14.2907H21.1398C22.3953 14.2907 23.2487 14.2918 23.9084 14.3457C24.551 14.3982 24.8796 14.4934 25.1089 14.6102C25.6604 14.8912 26.1089 15.3396 26.3899 15.8912C26.5067 16.1205 26.6019 16.4491 26.6544 17.0917C26.7083 17.7514 26.7094 18.6048 26.7094 19.8603V20.4466C26.7094 21.7021 26.7083 22.5556 26.6544 23.2152C26.6019 23.8578 26.5067 24.1864 26.3899 24.4157C26.1089 24.9673 25.6604 25.4157 25.1089 25.6968C24.8796 25.8136 24.551 25.9087 23.9084 25.9612C23.2487 26.0151 22.3953 26.0163 21.1398 26.0163H20.5535C19.298 26.0163 18.4445 26.0151 17.7848 25.9612C17.1423 25.9087 16.8136 25.8136 16.5844 25.6968C16.0328 25.4157 15.5844 24.9673 15.3033 24.4157C15.1865 24.1864 15.0914 23.8578 15.0389 23.2152C14.985 22.5556 14.9838 21.7021 14.9838 20.4466V19.8603C14.9838 18.6048 14.985 17.7514 15.0389 17.0917C15.0914 16.4491 15.1865 16.1205 15.3033 15.8912C15.5844 15.3396 16.0328 14.8912 16.5844 14.6102C16.8136 14.4934 17.1423 14.3982 17.7848 14.3457C18.4445 14.2918 19.298 14.2907 20.5535 14.2907Z" fill="#666680"/>
</svg>
