<svg width="41" height="41" viewBox="0 0 41 41" fill="none" xmlns="http://www.w3.org/2000/svg">
<rect x="2.67871" y="3.24805" width="34.875" height="34.875" rx="17.4375" stroke="#E8E8F6"/>
<path d="M18.0596 26.5331C16.2604 26.5331 14.5832 26.0098 13.1715 25.1069C14.37 25.1844 16.4852 24.9987 17.8009 23.7438C15.8217 23.6529 14.9292 22.135 14.8127 21.4863C14.9809 21.5512 15.7829 21.629 16.2357 21.4474C13.959 20.8766 13.6097 18.8786 13.6873 18.2688C14.1142 18.5672 14.8386 18.671 15.1232 18.6451C13.0017 17.1271 13.7649 14.8437 14.1401 14.3507C15.6625 16.4599 17.9442 17.6446 20.7669 17.7105C20.7137 17.477 20.6856 17.234 20.6856 16.9844C20.6856 15.1931 22.1334 13.741 23.9195 13.741C24.8527 13.741 25.6936 14.1374 26.2838 14.7715C26.9074 14.6254 27.8459 14.2833 28.3047 13.9875C28.0735 14.8178 27.3535 15.5105 26.918 15.7672C26.9144 15.7584 26.9216 15.7759 26.918 15.7672C27.3005 15.7093 28.3356 15.5104 28.7445 15.233C28.5423 15.6994 27.779 16.475 27.1526 16.9092C27.2691 22.0492 23.3365 26.5331 18.0596 26.5331Z" fill="#666680"/>
</svg>
